,,Header,MultiTrack,128
0,0,Sequence/Track Name,"horror_bass01.ogg"
0,0,Set Tempo,428571
0,192,Note On,0,60,64
0,224,Note Off,0,60,64
0,448,Note On,0,60,64
0,480,Note Off,0,60,64
0,672,Note On,0,60,64
0,704,Note Off,0,60,64
0,896,Note On,0,60,64
0,928,Note Off,0,60,64
0,1120,Note On,0,60,64
0,1152,Note Off,0,60,64
0,1344,Note On,0,60,64
0,1376,Note Off,0,60,64
0,1568,Note On,0,60,64
0,1600,Note Off,0,60,64
0,1760,Note On,0,60,64
0,1792,Note Off,0,60,64
0,1984,Note On,0,60,64
0,2016,Note Off,0,60,64
0,2176,Note On,0,60,64
0,2208,Note Off,0,60,64
0,2432,Note On,0,60,64
0,2464,Note Off,0,60,64
0,2624,Note On,0,60,64
0,2656,Note Off,0,60,64
0,2880,Note On,0,60,64
0,2912,Note Off,0,60,64
0,3072,Note On,0,60,64
0,3136,Note Off,0,60,64
0,3328,Note On,0,60,64
0,3360,Note Off,0,60,64
0,3584,Note On,0,62,64
0,3616,Note Off,0,62,64
0,4032,Note On,0,62,64
0,4064,Note Off,0,62,64
0,4512,Note On,0,62,64
0,4544,Note Off,0,62,64
0,4960,Note On,0,62,64
0,4992,Note Off,0,62,64
0,5408,Note On,0,62,64
0,5440,Note Off,0,62,64
0,5824,Note On,0,62,64
0,5856,Note Off,0,62,64
0,6272,Note On,0,62,64
0,6304,Note Off,0,62,64
0,6688,Note On,0,62,64
0,6720,Note Off,0,62,64
0,6976,Note On,0,60,64
0,7008,Note Off,0,60,64
0,7200,Note On,0,62,64
0,7232,Note Off,0,62,64
0,7360,Note On,0,62,64
0,7424,Note Off,0,62,64
0,7584,Note On,0,62,64
0,7616,Note Off,0,62,64
0,7808,Note On,0,62,64
0,7840,Note Off,0,62,64
0,8032,Note On,0,62,64
0,8064,Note Off,0,62,64
0,8224,Note On,0,62,64
0,8256,Note Off,0,62,64
0,8448,Note On,0,62,64
0,8480,Note Off,0,62,64
0,8672,Note On,0,62,64
0,8704,Note Off,0,62,64
0,8896,Note On,0,62,64
0,8928,Note Off,0,62,64
0,9056,Note On,0,60,64
0,9088,Note Off,0,60,64
0,9184,Note On,0,60,64
0,9216,Note Off,0,60,64
0,9312,Note On,0,60,64
0,9344,Note Off,0,60,64
0,9408,Note On,0,60,64
0,9440,Note Off,0,60,64
0,9536,Note On,0,60,64
0,9568,Note Off,0,60,64
0,9632,Note On,0,60,64
0,9664,Note Off,0,60,64
0,9728,Note On,0,60,64
0,9760,Note Off,0,60,64
0,9824,Note On,0,60,64
0,9856,Note Off,0,60,64
0,9952,Note On,0,60,64
0,10016,Note Off,0,60,64
0,10048,Note On,0,60,64
0,10080,Note Off,0,60,64
0,10112,Note On,0,60,64
0,10144,Note Off,0,60,64
0,10176,Note On,0,60,64
0,10208,Note Off,0,60,64
0,10240,Note On,0,60,64
0,10272,Note Off,0,60,64
0,10272,Note On,0,60,64
0,10304,Note Off,0,60,64
0,10336,Note On,0,60,64
0,10368,Note Off,0,60,64
0,10432,Note On,0,60,64
0,10464,Note Off,0,60,64
0,10464,Note On,0,60,64
0,10496,Note Off,0,60,64
0,10528,Note On,0,60,64
0,10560,Note Off,0,60,64
0,10592,Note On,0,60,64
0,10624,Note Off,0,60,64
0,10656,Note On,0,60,64
0,10688,Note Off,0,60,64
0,10720,Note On,0,60,64
0,10752,Note Off,0,60,64
0,10784,Note On,0,60,64
0,10816,Note Off,0,60,64
0,10912,Note On,0,62,64
0,10944,Note Off,0,62,64
0,11136,Note On,0,62,64
0,11200,Note Off,0,62,64
0,11360,Note On,0,62,64
0,11392,Note Off,0,62,64
0,11488,Note On,0,62,64
0,11520,Note Off,0,62,64
0,11616,Note On,0,60,64
0,11648,Note Off,0,60,64
0,11872,Note On,0,62,64
0,11904,Note Off,0,62,64
0,12128,Note On,0,62,64
0,12160,Note Off,0,62,64
0,12224,Note On,0,62,64
0,12256,Note Off,0,62,64
0,12320,Note On,0,62,64
0,12352,Note Off,0,62,64
0,12448,Note On,0,60,64
0,12512,Note Off,0,60,64
0,12704,Note On,0,62,64
0,12736,Note Off,0,62,64
0,12928,Note On,0,62,64
0,12960,Note Off,0,62,64
0,13088,Note On,0,62,64
0,13120,Note Off,0,62,64
0,13184,Note On,0,60,64
0,13248,Note Off,0,60,64
0,13280,Note On,0,62,64
0,13312,Note Off,0,62,64
0,13440,Note On,0,62,64
0,13472,Note Off,0,62,64
0,13536,Note On,0,60,64
0,13568,Note Off,0,60,64
0,13760,Note On,0,62,64
0,13792,Note Off,0,62,64
0,13888,Note On,0,62,64
0,13920,Note Off,0,62,64
0,14016,Note On,0,62,64
0,14048,Note Off,0,62,64
0,14080,Note On,0,62,64
0,14112,Note Off,0,62,64
0,14208,Note On,0,60,64
0,14240,Note Off,0,60,64
0,14336,Note On,0,62,64
0,14368,Note Off,0,62,64
0,14464,Note On,0,60,64
0,14496,Note Off,0,60,64
0,14592,Note On,0,62,64
0,14624,Note Off,0,62,64
0,14816,Note On,0,62,64
0,14880,Note Off,0,62,64
0,14912,Note On,0,62,64
0,14944,Note Off,0,62,64
0,14976,Note On,0,62,64
0,15008,Note Off,0,62,64
0,15104,Note On,0,60,64
0,15136,Note Off,0,60,64
0,15136,Note On,0,62,64
0,15200,Note Off,0,62,64
0,15296,Note On,0,62,64
0,15360,Note Off,0,62,64
0,15488,Note On,0,60,64
0,15520,Note Off,0,60,64
0,15584,Note On,0,62,64
0,15616,Note Off,0,62,64
0,15712,Note On,0,60,64
0,15744,Note Off,0,60,64
0,15776,Note On,0,62,64
0,15808,Note Off,0,62,64
0,15872,Note On,0,60,64
0,15904,Note Off,0,60,64
0,15904,Note On,0,62,64
0,15936,Note Off,0,62,64
0,16032,Note On,0,62,64
0,16064,Note Off,0,62,64
0,16064,Note On,0,62,64
0,16096,Note Off,0,62,64
0,16192,Note On,0,60,64
0,16224,Note Off,0,60,64
0,16288,Note On,0,62,64
0,16320,Note Off,0,62,64
0,16512,Note On,0,62,64
0,16576,Note Off,0,62,64
0,16608,Note On,0,62,64
0,16640,Note Off,0,62,64
0,16704,Note On,0,60,64
0,16736,Note Off,0,60,64
0,16768,Note On,0,62,64
0,16800,Note Off,0,62,64
0,16832,Note On,0,60,64
0,16864,Note Off,0,60,64
0,16928,Note On,0,62,64
0,16992,Note Off,0,62,64
0,16992,Note On,0,60,64
0,17088,Note Off,0,60,64
0,17120,Note On,0,62,64
0,17152,Note Off,0,62,64
0,17280,Note On,0,62,64
0,17312,Note Off,0,62,64
0,17408,Note On,0,62,64
0,17472,Note Off,0,62,64
0,17536,Note On,0,60,64
0,17568,Note Off,0,60,64
0,17600,Note On,0,62,64
0,17632,Note Off,0,62,64
0,17664,Note On,0,60,64
0,17696,Note On,0,62,64
0,17728,Note Off,0,60,64
0,17728,Note Off,0,62,64
0,17760,Note On,0,60,64
0,17824,Note Off,0,60,64
1,0,Sequence/Track Name,"horror_bass01.ogg"
1,0,Set Tempo,428571
